# xmcd CD database file generated by OrangeCD 4.2
#
# Track frame offsets:
#	150
#	2742
#	22178
#	46055
#	65216
#	84099
#	102459
#	120466
#	141882
#	162197
#	179814
#	198025
#	203197
#
# Disc length: 2854 seconds
#
# Revision: 0
# Processed by: cddbd v1.4PL0 Copyright (c) Steve Scherf et al.
# Submitted via: OrangeCD 4.2
#
DISCID=b00b240d
DTITLE=Lil Rob - High Till I Die
DYEAR=2000
DGENRE=
TTITLE0=Intro
TTITLE1=Those Who Talk (2000 Remix)
TTITLE2=High Till I Die
TTITLE3=I Remember
TTITLE4=Wickie Wicked
TTITLE5=La Cantina
TTITLE6=Let Me Try
TTITLE7=No Soy De Ti
TTITLE8=The Outcome
TTITLE9=No One To Depend On
TTITLE10=La Cantina (remix)
TTITLE11=Outro
TTITLE12=Low Profile Mix
EXTD=
EXTT0=
EXTT1=
EXTT2=
EXTT3=
EXTT4=
EXTT5=
EXTT6=
EXTT7=
EXTT8=
EXTT9=
EXTT10=
EXTT11=
EXTT12=
PLAYORDER=
